<?xml version="1.0" encoding="UTF-8" standalone="no"?>
<!DOCTYPE svg PUBLIC "-//W3C//DTD SVG 1.1//EN" "http://www.w3.org/Graphics/SVG/1.1/DTD/svg11.dtd">
<svg width="100%" height="100%" viewBox="0 0 464 77" version="1.1" xmlns="http://www.w3.org/2000/svg" xmlns:xlink="http://www.w3.org/1999/xlink" xml:space="preserve" xmlns:serif="http://www.serif.com/" style="fill-rule:evenodd;clip-rule:evenodd;stroke-linejoin:round;stroke-miterlimit:2;">
    <path d="M0,24L27.1,24L27.1,33.9L26,33.9C24.7,33.9 23.9,34 23.5,34.3C23,34.6 22.8,35.1 22.8,35.7C22.8,36.2 23,36.9 23.3,37.9L30.3,60L36.5,42.7L34.9,37.9C34.4,36.5 33.8,35.5 33.1,34.9C32.4,34.3 31.4,34 30,33.9L30,24L55.7,24L55.7,33.9L53.6,33.9C52.4,33.9 51.6,34.1 51.2,34.4C50.8,34.7 50.5,35.2 50.5,35.9C50.5,36.5 50.7,37.4 51.1,38.6L57.3,56.9L63.5,38.6C63.9,37.4 64.1,36.5 64.1,35.9C64.1,35.3 63.9,34.8 63.4,34.4C62.9,34.1 61.9,33.9 60.3,33.9L59.1,33.9L59.1,24L82.1,24L82.1,33.9C80.4,33.9 79.4,34 78.9,34.2C78.4,34.4 77.9,34.7 77.6,35.2C77.1,35.8 76.6,37 76,38.6L62.2,75.1L48.7,75.1L41.1,54.6L33.4,75.1L19.7,75.1L6.2,38.6C5.7,37.3 5.1,36.2 4.5,35.4C4.1,34.8 3.7,34.4 3.2,34.3C2.7,34 1.7,33.9 0,33.9L0,24ZM109.8,22.8L109.8,60.6C109.8,62.4 109.9,63.5 110.1,63.9C110.3,64.3 110.7,64.6 111.2,64.8C111.7,65 112.9,65.1 114.8,65.1L117.6,65.1L117.6,75L86,75L86,65.1L88.7,65.1C90.5,65.1 91.6,65 92.1,64.8C92.6,64.6 93,64.3 93.2,63.9C93.4,63.5 93.6,62.6 93.6,61.2L93.6,36.9L86,36.9L86,27.3C88.7,27.2 91.3,26.9 93.7,26.4C97.607,25.696 101.406,24.486 105,22.8L109.8,22.8ZM101.6,0C104.077,-0.047 106.466,0.93 108.2,2.7C110,4.5 110.9,6.7 110.9,9.3C110.901,9.367 110.902,9.434 110.902,9.501C110.902,14.548 106.749,18.701 101.702,18.701C101.668,18.701 101.634,18.7 101.6,18.7C99.123,18.747 96.734,17.77 95,16C93.2,14.2 92.3,12 92.3,9.4C92.3,6.8 93.2,4.6 95.1,2.8C96.9,0.9 99.1,0 101.6,0M146.9,0L146.9,46.1L156.7,37.8L158.6,36.1L158.9,35.4C158.9,35 158.7,34.7 158.2,34.4C157.7,34.1 156.8,34 155.3,34L153.4,34L153.4,24L184.7,24L184.7,33.9C182.5,33.9 180.9,34.1 180.1,34.4C179,34.8 177.2,36 174.7,37.8L164.8,45.1L178.9,61.5C180.3,63.2 181.5,64.3 182.4,64.6C183.3,65 185.1,65.2 187.7,65.2L187.7,75.1L156,75.1L156,65.2L157.8,65.2C159.1,65.2 159.9,65.1 160.3,64.8C160.7,64.6 160.9,64.3 160.9,63.9C160.9,63.4 160.4,62.5 159.3,61L153.4,53.5L147,58.3L147,61.1C147,62.4 147.1,63.3 147.3,63.7C147.5,64.2 147.9,64.5 148.3,64.8C148.8,65.1 149.6,65.2 150.6,65.2L152.4,65.2L152.4,75.1L123,75.1L123,65.2L125.4,65.1C126.647,65.199 127.903,65.064 129.1,64.7C129.622,64.397 130.04,63.944 130.3,63.4C130.5,63 130.6,61.5 130.6,58.9L130.6,14.2L123,14.2L123,4.2C128.8,3.9 135.1,2.5 141.9,-0L146.9,-0ZM216.7,22.8L216.7,60.6C216.7,62.4 216.8,63.5 217,63.9C217.2,64.3 217.6,64.6 218.1,64.8C218.6,65 219.8,65.1 221.7,65.1L224.5,65.1L224.5,75L192.9,75L192.9,65.1L195.6,65.1C197.4,65.1 198.5,65 199,64.8C199.464,64.645 199.856,64.324 200.1,63.9C200.3,63.5 200.5,62.6 200.5,61.2L200.5,36.9L192.9,36.9L192.9,27.3C195.6,27.2 198.2,26.9 200.6,26.4C204.507,25.696 208.306,24.486 211.9,22.8L216.7,22.8ZM208.4,0C211,0 213.2,0.9 215,2.7C216.8,4.5 217.7,6.7 217.7,9.3C217.701,9.367 217.702,9.434 217.702,9.501C217.702,14.548 213.549,18.701 208.502,18.701C208.468,18.701 208.434,18.7 208.4,18.7C205.8,18.7 203.6,17.8 201.8,16C200,14.2 199.1,12 199.1,9.4C199.1,6.8 200,4.6 201.9,2.8C203.7,0.9 205.9,0 208.4,0" style="fill:rgb(239,239,239);fill-rule:nonzero;"/>
    <path d="M237.5,3.7L272.3,3.7L272.3,13.6L269.1,13.6C267.879,13.52 266.653,13.69 265.5,14.1C264.911,14.47 264.428,14.987 264.1,15.6C263.8,16.3 263.7,17.7 263.7,19.9L263.7,32.3L289.7,32.3L289.7,19.1C289.753,17.991 289.652,16.881 289.4,15.8C289.1,15 288.7,14.4 288,14.1C287.4,13.8 285.9,13.6 283.7,13.6L281,13.6L281,3.7L315.9,3.7L315.9,13.6L313,13.6C311,13.6 309.7,13.8 309.1,14.1C308.5,14.4 308,14.9 307.7,15.5C307.4,16.1 307.3,17.6 307.3,20L307.3,58.7C307.3,61.1 307.5,62.6 307.8,63.3C308.1,64 308.6,64.5 309.3,64.8C310,65.1 311.5,65.2 313.9,65.2L315.9,65.2L315.9,75.1L281,75.1L281,65.2L283.3,65.2C285.4,65.2 286.9,65 287.7,64.7C288.5,64.4 289,63.9 289.3,63.2C289.6,62.6 289.7,61 289.7,58.6L289.7,43.6L263.7,43.6L263.7,58.7C263.7,61.1 263.8,62.6 264,63.2C264.3,64.1 264.9,64.6 265.6,64.9C266.3,65.2 267.8,65.3 269.9,65.3L272.3,65.3L272.3,75.2L237.5,75.2L237.5,65.3L239.9,65.3C241.9,65.3 243.3,65.1 244.1,64.8C244.9,64.5 245.4,64 245.7,63.4C246,62.8 246.1,61.4 246.1,59.4L246.1,20.5C246.1,18.1 246,16.5 245.7,15.8C245.4,15.1 245,14.5 244.3,14.2C243.147,13.79 241.921,13.62 240.7,13.7L237.5,13.7L237.5,3.7ZM348.9,22.8C354.7,22.8 359.8,23.9 364.1,26.2C368.4,28.5 371.8,31.6 374.1,35.5C376.4,39.4 377.6,44.1 377.6,49.3C377.6,57.3 375,63.8 369.8,68.7C364.6,73.7 357.7,76.2 349,76.2C340.2,76.2 333.1,73.7 327.9,68.7C322.9,63.9 320.3,57.5 320.3,49.3C320.3,43.9 321.5,39.3 323.8,35.5C326.205,31.532 329.669,28.312 333.8,26.2C338.2,24 343.2,22.8 348.9,22.8M349.1,34C347.2,34 345.3,34.6 343.6,35.7C341.9,36.9 340.6,38.6 339.6,40.8C338.7,43.1 338.2,45.9 338.2,49.4C338.2,53 338.7,55.9 339.6,58.3C340.5,60.7 341.8,62.4 343.4,63.5C344.951,64.594 346.801,65.188 348.7,65.2C351.7,65.2 354.3,63.9 356.4,61.4C358.5,58.9 359.6,54.9 359.6,49.6C359.6,44.4 358.6,40.5 356.6,37.9C354.918,35.422 352.094,33.954 349.1,34M381.3,24L408.4,24L408.4,33.9L407.3,33.9C406,33.9 405.2,34 404.8,34.3C404.3,34.6 404.1,35.1 404.1,35.7C404.1,36.2 404.3,36.9 404.6,37.9L411.7,60L417.9,42.7L416.3,37.9C415.964,36.764 415.344,35.731 414.5,34.9C413.8,34.3 412.8,34 411.4,33.9L411.4,24L437,24L437,33.9L434.9,33.9C433.7,33.9 432.9,34.1 432.5,34.4C432.1,34.7 431.8,35.2 431.8,35.9C431.8,36.5 432,37.4 432.4,38.6L438.6,56.9L444.8,38.6C445.2,37.4 445.4,36.5 445.4,35.9C445.4,35.3 445.2,34.8 444.7,34.4C444.2,34.1 443.2,33.9 441.6,33.9L440.4,33.9L440.4,24L463.4,24L463.4,33.9C461.7,33.9 460.7,34 460.2,34.2C459.7,34.4 459.2,34.7 458.9,35.2C458.4,35.8 457.9,37 457.3,38.6L443.5,75.1L430,75.1L422.4,54.6L414.7,75.1L401,75.1L387.5,38.6C387,37.3 386.4,36.2 385.8,35.4C385.4,34.8 385,34.4 384.5,34.3C384,34.1 383,34 381.3,34L381.3,24Z" style="fill:rgb(147,184,115);fill-rule:nonzero;"/>
</svg>
